                   The Boston Strangler 1968 DVDRIP
                   ================================
The Boston Strangler is a 1968 film based on the true story of the Boston Strangler and the book by Gerold Frank. It was directed by Richard Fleischer, and stars Tony Curtis as Albert DeSalvo, the strangler, and Henry Fonda as John S. Bottomly, the chief detective now famed for obtaining DeSalvo's confession.

Plot
----
The first part of the film shows the police investigation, with some examples of the seedier side of Boston life, including promiscuity in the adult quarters of the city. The second part shows the apprehension of DeSalvo. The intention of Officer Bottomly and the law is to answer the question presented in the film's famous print ad:

    Why did 13 women open their doors to the Boston Strangler? 

Reviews
-------
When released film critic Roger Ebert criticized the film's content, writing, "The Boston Strangler requires a judgment not only on the quality of the film (very good), but also on its moral and ethical implications...The events described in Frank's book have been altered considerably in the film. This is essentially a work of fiction 'based' on the real events. And based on them in such a way to entertain us, which it does, but for the wrong reasons, I believe. This film, which was made so well, should not have been made at all."

In the same vein, The New York Times film critic Renata Adler, wrote "The Boston Stranger represents an incredible collapse of taste, judgment, decency, prose, insight, journalism and movie technique, and yet—through certain prurient options that it does not take—it is not quite the popular exploitation film that one might think. It is as though someone had gone out to do a serious piece of reporting and come up with 4,000 clippings from a sensationalist tabloid. It has no depth, no timing, no facts of any interest and yet, without any hesitation, it uses the name and pretends to report the story of a living man, who was neither convicted nor indicted for the crimes it ascribes to him. Tony Curtis 'stars'—the program credits word—as what the movie takes to be the Boston strangler."

More recently, film critic Dennis Schwartz discussed the film's style, writing, "What mostly filled the split-screen was the many interrogation scenes, where on one side was the suspect and interrogator in the present and on the other side the suspect and his interrogator in flashbacks. Fleischer eschews the graphic violence in the murders and aims instead to try and understand the killer through the script's bogus psychology. The big things the film tried didn't pan out as that interesting, as the flashy camera work counteracts the conventional storyline chronicling the rise, manhunt, fall, and prosecution of De Salvo."

Awards
------
Nominations
------------
    Golden Globe Award: Best Motion Picture Actor - Drama, Tony Curtis; 1969.
    Edgar Award: Edgar Allan Poe Award, Best Motion Picture, Edward Anhalt; 1969.
    American Cinema Editors: Eddie, Best Edited Feature Film, Marion Rothman; 1969.
___________________________________________________________________________________

A/V Info:
++++++++
Format                           : AVI
Format/Info                      : Audio Video Interleave
File size                        : 599 MiB
Duration                         : 1h 51mn
Overall bit rate                 : 752 Kbps
Writing application              : MEncoder SVN-r1.0~rc3+svn20090426-4.4.3
Writing library                  : MPlayer

Video
+++++ 
Format                           : MPEG-4 Visual
Format profile                   : Advanced Simple@L5
Format settings, BVOP            : 2
Format settings, QPel            : No
Format settings, GMC             : No warppoints
Format settings, Matrix          : Default (H.263)
Codec ID                         : XVID
Codec ID/Hint                    : XviD
Duration                         : 1h 51mn
Bit rate                         : 665 Kbps
Width                            : 608 pixels
Height                           : 256 pixels
Display aspect ratio             : 2.40:1
Frame rate                       : 25.000 fps
Color space                      : YUV
Chroma subsampling               : 4:2:0
Bit depth                        : 8 bits
Scan type                        : Progressive
Compression mode                 : Lossy
Bits/(Pixel*Frame)               : 0.171
Stream size                      : 531 MiB (89%)
Writing library                  : XviD 1.2.1 (UTC 2008-12-04)

Audio
+++++
Format                           : MPEG Audio
Format version                   : Version 1
Format profile                   : Layer 3
Mode                             : Joint stereo
Mode extension                   : MS Stereo
Codec ID                         : 55
Codec ID/Hint                    : MP3
Duration                         : 1h 51mn
Bit rate mode                    : Constant
Bit rate                         : 32.0 Kbps
Channel(s)                       : 2 channels
Sampling rate                    : 48.0 KHz
Compression mode                 : Lossy
Stream size                      : 58.6 MiB (10%)
Alignment                        : Aligned on interleaves
Interleave, duration             : 24 ms (0.60 video frame)
Interleave, preload duration     : 219 ms
Writing library                  : LAME3.98.2
___________________________________________________________________________________

Playback Guide For DVD/CD Player: This file can be played with any DIVX/MP4 compatible DVD/VCD Player. Just burn the avi file onto a CD using Nero or 
Ashampoo Burning Studio by making a DATA CD.

Playback guide for PC: To play this video make sure you have VLC media player 
(VideoLAN) or SMplayer installed on your PC.

Download VLC Media Player: http://www.videolan.org/
Download SMPlayer: http://smplayer.sf.net/



Another Quality Torrent Courtesy of Hyperdrive25. All My torrents are here:
    
http://thepiratebay.org/user/Hyperdrive25


___________________________________________________________________________________

==========================+= HYPERDRIVE25 TORRENT =+==============================
___________________________________________________________________________________


              THE SOLE PURPOSE OF LIFE IS TO KEEP FREE OF BOREDOM!


                              ENJOY THE MOVIE!!! :)		



